<svg xmlns="http://www.w3.org/2000/svg"  viewBox="0 0 100 100" width="50px" height="50px"><circle cx="78" cy="14" r="1" fill="#f1bc19"/><circle cx="50" cy="50" r="38" fill="#f9dbd2"/><circle cx="84" cy="16" r="4" fill="#f1bc19"/><circle cx="14" cy="26" r="2" fill="#ee3e54"/><circle cx="78" cy="77" r="2" fill="#fbcd59"/><circle cx="17" cy="78" r="4" fill="#fbcd59"/><circle cx="24" cy="83" r="2" fill="#ee3e54"/><circle cx="66.5" cy="78.5" r="2.5" fill="#fff"/><circle cx="16" cy="48" r="1" fill="#fff"/><circle cx="86" cy="31" r="1" fill="#f1bc19"/><circle cx="80" cy="66" r="2" fill="#fff"/><path fill="#77cbd2" d="M50,63c-16,0-28-5.6-28-13s12-13,28-13c16,0,28,5.6,28,13S66,63,50,63z M50,40.9c-14.3,0-24.3,4.8-24.3,9.1 s10,9.1,24.3,9.1s24.3-4.8,24.3-9.1S64.3,40.9,50,40.9z"/><path fill="#472b29" d="M50,63.7c-16.4,0-28.7-5.9-28.7-13.7S33.6,36.3,50,36.3c16.4,0,28.7,5.9,28.7,13.7S66.4,63.7,50,63.7z M50,37.7C34.4,37.7,22.7,43,22.7,50S34.4,62.3,50,62.3S77.3,57,77.3,50S65.6,37.7,50,37.7z M50,59.8c-14.9,0-25-5.1-25-9.8 s10-9.8,25-9.8s25,5.1,25,9.8S64.9,59.8,50,59.8z M50,41.6c-14.6,0-23.6,4.9-23.6,8.4s9,8.4,23.6,8.4s23.6-4.9,23.6-8.4 S64.6,41.6,50,41.6z"/><path fill="#77cbd2" d="M39.5,75.2c-1.3,0-2.4-0.3-3.4-0.9c-6.1-3.6-4.8-16.7,3.1-30.6c5.5-9.7,12.9-17,18.9-18.6 c2.2-0.6,4.2-0.4,5.8,0.5c6.1,3.6,4.8,16.7-3.1,30.6c-5.5,9.7-12.9,17-18.9,18.6C41.1,75.1,40.3,75.2,39.5,75.2z M60.5,28.5 c-0.4,0-0.9,0.1-1.5,0.2c-4.9,1.3-11.6,8.1-16.6,16.8c-6.9,12.1-8,23.4-4.5,25.5c0.7,0.4,1.7,0.5,3,0.2c4.9-1.3,11.6-8.1,16.6-16.8 c6.9-12.1,8-23.4,4.5-25.5C61.6,28.7,61.1,28.5,60.5,28.5z"/><path fill="#472b29" d="M39.5,75.9c-1.4,0-2.7-0.3-3.8-1c-6.5-3.8-5.3-17.4,2.8-31.6c5.6-9.9,13.2-17.3,19.3-18.9 c2.4-0.6,4.6-0.4,6.4,0.6c6.5,3.8,5.3,17.4-2.8,31.6c-5.6,9.9-13.2,17.3-19.3,18.9C41.2,75.8,40.4,75.9,39.5,75.9z M60.5,25.5 c-0.7,0-1.5,0.1-2.2,0.3c-5.8,1.5-13,8.7-18.4,18.2c-7.6,13.3-9,26.3-3.3,29.7c1.4,0.8,3.3,1,5.3,0.5c5.8-1.5,13-8.7,18.4-18.2 c7.6-13.3,9.1-26.3,3.3-29.6C62.6,25.8,61.6,25.5,60.5,25.5z M39.5,72.2c-0.7,0-1.3-0.2-1.9-0.5c-4.4-2.5-2.4-14.9,4.2-26.5 c5.1-8.9,11.9-15.8,17-17.1c1.4-0.4,2.6-0.3,3.5,0.2c4.4,2.5,2.4,14.9-4.2,26.5c-5.1,8.9-11.9,15.8-17,17.1 C40.6,72.1,40,72.2,39.5,72.2z M60.5,29.2c-0.4,0-0.8,0.1-1.3,0.2c-4.8,1.3-11.3,7.9-16.2,16.5c-7.1,12.5-7.6,22.9-4.7,24.6 c0.6,0.3,1.4,0.4,2.4,0.1c4.8-1.3,11.3-7.9,16.2-16.5c7.1-12.5,7.6-22.9,4.7-24.6C61.3,29.3,60.9,29.2,60.5,29.2z"/><path fill="#77cbd2" d="M60.5,75.2c-0.8,0-1.6-0.1-2.4-0.3c-5.9-1.6-13.3-8.9-18.9-18.6c-7.9-13.9-9.2-27-3.1-30.6	c1.6-0.9,3.6-1.1,5.8-0.5c5.9,1.6,13.3,8.9,18.9,18.6c7.9,13.9,9.2,27,3.1,30.6C62.9,74.9,61.7,75.2,60.5,75.2z M39.5,28.5	c-0.6,0-1.1,0.1-1.5,0.4c-3.6,2.1-2.4,13.5,4.5,25.5c5,8.7,11.6,15.5,16.6,16.8c1.2,0.3,2.2,0.3,3-0.2c3.6-2.1,2.4-13.5-4.5-25.5	c-5-8.7-11.6-15.5-16.6-16.8C40.4,28.6,40,28.5,39.5,28.5z"/><path fill="#472b29" d="M60.5,75.9c-0.8,0-1.7-0.1-2.6-0.4c-6.1-1.6-13.7-9.1-19.3-18.9c-8.1-14.2-9.3-27.8-2.8-31.6	c1.8-1,4-1.3,6.4-0.6c6.1,1.6,13.7,9.1,19.3,18.9c8.1,14.2,9.3,27.8,2.8,31.6C63.1,75.6,61.9,75.9,60.5,75.9z M39.5,25.5	c-1.1,0-2.2,0.3-3.1,0.8c-5.7,3.3-4.2,16.4,3.3,29.6c5.4,9.5,12.7,16.7,18.4,18.2c2,0.5,3.8,0.4,5.3-0.5c5.7-3.3,4.2-16.4-3.3-29.7	c-5.4-9.5-12.7-16.7-18.4-18.2C41,25.6,40.2,25.5,39.5,25.5z M60.5,72.2c-0.5,0-1-0.1-1.6-0.2c-5.1-1.4-11.9-8.3-17-17.1	c-6.6-11.6-8.6-23.9-4.2-26.5c0.9-0.5,2.1-0.6,3.5-0.2c5.1,1.4,11.9,8.3,17,17.1c6.6,11.6,8.6,23.9,4.2,26.5	C61.8,72,61.2,72.2,60.5,72.2z M39.5,29.2c-0.5,0-0.9,0.1-1.2,0.3c-2.8,1.7-2.4,12.1,4.7,24.6c4.9,8.6,11.4,15.2,16.2,16.5	c1,0.3,1.9,0.2,2.4-0.1c2.8-1.7,2.4-12.1-4.7-24.6C52,37.3,45.6,30.7,40.8,29.4C40.3,29.3,39.9,29.2,39.5,29.2z"/><g><circle cx="50" cy="50" r="5.5" fill="#77cbd2"/><path fill="#472b29" d="M50,56c-3.3,0-6-2.7-6-6s2.7-6,6-6s6,2.7,6,6S53.3,56,50,56z M50,45c-2.8,0-5,2.2-5,5s2.2,5,5,5s5-2.2,5-5 S52.8,45,50,45z"/></g><g><path fill="#472b29" d="M50,53.8c-0.1,0-0.3-0.1-0.3-0.3s0.1-0.3,0.3-0.3c0.4,0,0.7-0.1,1.1-0.2c0.5-0.2,0.9-0.5,1.3-0.8 c0.1-0.1,0.3-0.1,0.4,0c0.1,0.1,0.1,0.3,0,0.4c-0.4,0.4-0.9,0.8-1.5,1C50.9,53.7,50.4,53.8,50,53.8z"/></g><g><path fill="#472b29" d="M53.1,51.8c0,0-0.1,0-0.1,0c-0.1-0.1-0.2-0.2-0.1-0.3c0.2-0.4,0.3-0.9,0.3-1.4c0-1.3-0.7-2.4-1.8-2.9 c-0.1-0.1-0.2-0.2-0.1-0.3c0.1-0.1,0.2-0.2,0.3-0.1c1.3,0.6,2.1,1.9,2.1,3.4c0,0.6-0.1,1.1-0.4,1.7C53.3,51.7,53.2,51.8,53.1,51.8z"/></g><g><path fill="#472b29" d="M48.1,47.3c-0.1,0-0.2,0-0.2-0.1c-0.1-0.1,0-0.3,0.1-0.3c0.6-0.4,1.3-0.6,2-0.6c0.1,0,0.3,0.1,0.3,0.3 s-0.1,0.3-0.3,0.3c-0.6,0-1.2,0.2-1.8,0.5C48.2,47.3,48.2,47.3,48.1,47.3z"/></g><g><path fill="#472b29" d="M53.5,36.8c-0.1,0-0.1,0-0.2-0.1c-3.7-4.6-7.2-7.6-10.4-8.9c-0.1-0.1-0.2-0.2-0.1-0.3c0.1-0.1,0.2-0.2,0.3-0.1 c3.3,1.4,6.8,4.5,10.6,9.1c0.1,0.1,0.1,0.3,0,0.4C53.6,36.7,53.6,36.8,53.5,36.8z"/></g><g><path fill="#472b29" d="M36.5,27.8c-0.1,0-0.1,0-0.2-0.1c-0.1-0.1-0.1-0.3,0-0.4c0.3-0.2,1.9-1.3,4.8-0.7c0.1,0,0.2,0.2,0.2,0.3 c0,0.1-0.2,0.2-0.3,0.2c-2.7-0.6-4.1,0.4-4.3,0.6C36.6,27.7,36.6,27.8,36.5,27.8z"/></g><g><path fill="#472b29" d="M73.3,55.5c-0.1,0-0.1,0-0.2-0.1c-0.1-0.1-0.1-0.3,0-0.4c2.3-1.9,3.2-4.1,2.7-6.6c0-0.1,0.1-0.3,0.2-0.3 c0.1,0,0.3,0.1,0.3,0.2c0.6,2.6-0.4,5.1-2.9,7.1C73.4,55.5,73.3,55.5,73.3,55.5z"/></g><g><path fill="#472b29" d="M69,57.9c-0.1,0-0.2-0.1-0.2-0.2c0-0.1,0-0.3,0.2-0.3c0,0,1.4-0.5,2.9-1.4c0.1-0.1,0.3,0,0.3,0.1 c0.1,0.1,0,0.3-0.1,0.3C70.5,57.4,69.1,57.8,69,57.9C69,57.9,69,57.9,69,57.9z"/></g><g><path fill="#472b29" d="M39.1,73.6C39.1,73.6,39.1,73.6,39.1,73.6c-2.7-0.1-4.4-2.1-5-5.7c0-0.1,0.1-0.3,0.2-0.3 c0.1,0,0.3,0.1,0.3,0.2c0.6,3.4,2.1,5.2,4.5,5.3c0.1,0,0.2,0.1,0.2,0.3C39.4,73.5,39.3,73.6,39.1,73.6z"/></g><g><path fill="#472b29" d="M34.1,65.7c-0.1,0-0.2-0.1-0.3-0.2c-0.1-2.3,0.2-4.3,0.3-4.6c0-0.1,0.2-0.2,0.3-0.2c0.1,0,0.2,0.2,0.2,0.3 c0,0.1-0.4,2.1-0.3,4.4C34.4,65.6,34.3,65.7,34.1,65.7C34.1,65.7,34.1,65.7,34.1,65.7z"/></g></svg>